<?xml version="1.0" standalone="no"?>
<!DOCTYPE svg PUBLIC "-//W3C//DTD SVG 1.1//EN" "http://www.w3.org/Graphics/SVG/1.1/DTD/svg11.dtd" >
<svg xmlns="http://www.w3.org/2000/svg" xmlns:xlink="http://www.w3.org/1999/xlink" version="1.1">
<metadata>
Created by FontForge 20190801 at Mon Dec 26 10:13:13 2005
 By www-data
Copyright (C) 1996 The Monotype Corporation. Arial is a trademark of The Monotype Corporation registered in certain countries. All rights reserved.
</metadata>
<defs>
<font id="ArialCE" horiz-adv-x="556" >
  <font-face 
    font-family="ArialCE"
    font-weight="500"
    font-stretch="normal"
    units-per-em="1000"
    panose-1="0 0 0 0 0 0 0 0 0 0"
    ascent="800"
    descent="-200"
    x-height="518"
    cap-height="716"
    bbox="-44 -223 1006 924"
    underline-thickness="50"
    underline-position="-125"
    unicode-range="U+0020-00FF"
  />
<missing-glyph horiz-adv-x="278" 
 />
    <glyph glyph-name=".notdef" horiz-adv-x="278" 
 />
    <glyph glyph-name=".notdef" horiz-adv-x="278" 
 />
    <glyph glyph-name=".null" horiz-adv-x="0" 
 />
    <glyph glyph-name="nonmarkingreturn" horiz-adv-x="333" 
 />
    <glyph glyph-name="space" unicode=" " horiz-adv-x="278" 
 />
    <glyph glyph-name="exclam" unicode="!" horiz-adv-x="278" 
d="M189 0h-100v100h100v-100zM168 178h-57l-27 379v159h109v-159z" />
    <glyph glyph-name="quotedbl" unicode="&#x22;" horiz-adv-x="355" 
d="M125 462h-54l-24 137v117h100v-117zM286 462h-53l-24 137v117h100v-117z" />
    <glyph glyph-name="numbersign" unicode="#" 
d="M125 -12h-73l42 209h-82v71h97l36 179h-133v71h148l43 210h73l-43 -210h154l43 210h73l-42 -210h84v-71h-99l-36 -179h135v-71h-150l-42 -209h-74l42 209h-153zM219 447l-37 -179h154l36 179h-153z" />
    <glyph glyph-name="dollar" unicode="$" 
d="M303 -103h-52v88q-54 7 -87 20q-41 17 -71 51q-49 56 -55 143l88 16q20 -146 125 -156v280q-199 38 -199 201q0 92 66 150q28 25 62 36q28 10 71 14v42h52v-42q168 -15 191 -177l-91 -13q-15 99 -100 116v-254l48 -12q27 -7 44 -15q117 -52 117 -182q0 -90 -56 -150
q-59 -62 -153 -67v-89zM251 667q-109 -17 -109 -122q0 -89 109 -122v244zM303 59q51 6 84 43q35 38 35 95q0 56 -32 86q-26 25 -87 44v-268z" />
    <glyph glyph-name="percent" unicode="%" horiz-adv-x="889" 
d="M676 728l-390 -754h-73l392 754h71zM101 677q41 51 109 51q69 0 112 -48q44 -50 44 -133q0 -96 -44 -149q-42 -49 -110 -49q-151 0 -151 195q0 82 40 133zM137 537q0 -127 76 -127q77 0 77 130q0 127 -77 127q-76 0 -76 -130zM565 302q41 51 108 51q70 0 113 -48
q43 -50 43 -133q0 -96 -44 -149q-42 -49 -110 -49q-151 0 -151 195q0 83 41 133zM600 162q0 -127 76 -127q77 0 77 130q0 127 -77 127q-76 0 -76 -130z" />
    <glyph glyph-name="ampersand" unicode="&#x26;" horiz-adv-x="667" 
d="M342 401l129 -164q22 43 34 100l91 -19q-12 -45 -25 -80q-16 -41 -39 -75q47 -63 112 -110l-59 -70q-52 33 -110 101q-85 -95 -202 -95q-102 0 -167 62q-62 60 -62 152q0 127 169 208q-41 49 -59 81q-21 39 -21 77q0 65 50 111q52 48 128 48q72 0 120 -45q46 -44 46 -108
q0 -102 -135 -174zM259 354q-121 -73 -121 -151q0 -50 36 -92q39 -46 97 -46q91 0 149 89zM297 457q47 29 65 49q25 29 25 71q0 79 -79 79q-85 0 -85 -75q0 -36 35 -78z" />
    <glyph glyph-name="quotesingle" unicode="'" horiz-adv-x="191" 
d="M123 462h-55l-22 134v120h100v-120z" />
    <glyph glyph-name="parenleft" unicode="(" horiz-adv-x="333" 
d="M296 728q-1 -2 -3 -5l-47 -83q-28 -54 -47 -104q-23 -61 -35 -124q-14 -73 -14 -152q0 -237 146 -470h-63q-79 101 -125 219q-48 126 -48 250q0 238 173 469h63z" />
    <glyph glyph-name="parenright" unicode=")" horiz-adv-x="333" 
d="M36 -210q146 233 146 470q0 79 -14 151q-12 63 -35 124q-18 50 -47 104l-50 89h63q173 -230 173 -469q0 -124 -48 -250q-46 -119 -125 -219h-63z" />
    <glyph glyph-name="asterisk" unicode="*" horiz-adv-x="389" 
d="M261 423q-20 28 -40 60l-27 45q-1 -3 -3 -6l-7 -12q-2 -3 -3 -6q-8 -15 -15 -26q-18 -31 -36 -55l-57 42q58 71 81 92q-61 12 -120 27l22 70q37 -13 61 -23q31 -13 52 -25l-6 62q-3 35 -3 60h70q-1 -32 -4 -67l-7 -54q55 27 115 47l23 -70q-60 -20 -122 -27
q12 -10 33 -33q26 -27 51 -59z" />
    <glyph glyph-name="plus" unicode="+" horiz-adv-x="584" 
d="M335 116h-84v195h-195v84h195v194h84v-194h194v-84h-194v-195z" />
    <glyph glyph-name="comma" unicode="," horiz-adv-x="278" 
d="M81 -104q54 25 56 104h-50v100h100v-100q0 -105 -82 -141z" />
    <glyph glyph-name="hyphen" unicode="-" horiz-adv-x="333" 
d="M302 215h-270v88h270v-88z" />
    <glyph glyph-name="period" unicode="." horiz-adv-x="278" 
d="M189 0h-100v100h100v-100z" />
    <glyph glyph-name="slash" unicode="/" horiz-adv-x="278" 
d="M71 -12h-71l207 740h71z" />
    <glyph glyph-name="zero" unicode="0" 
d="M277 719q234 0 234 -366q0 -365 -233 -365q-234 0 -234 365q0 366 233 366zM277 60q144 0 144 293q0 294 -144 294q-143 0 -143 -294q0 -293 143 -293z" />
    <glyph glyph-name="one" unicode="1" 
d="M375 719v-719h-88v560q-70 -67 -176 -106v85q155 73 207 180h57z" />
    <glyph glyph-name="two" unicode="2" 
d="M48 512q18 207 232 207q102 0 164 -58q59 -54 59 -137q0 -68 -44 -134q-19 -28 -46 -58q-24 -25 -56 -54q-13 -12 -30 -25l-44 -38q-9 -6 -15 -12q-16 -13 -28 -24q-30 -26 -50 -47q-24 -25 -37 -48h351v-84h-473v19q0 38 38 95q45 69 128 137l90 76q42 38 68 68
q58 67 58 127q0 54 -38 89q-38 36 -96 36q-141 0 -141 -145z" />
    <glyph glyph-name="three" unicode="3" 
d="M218 339l9 77q60 -6 107 24q53 34 53 97q0 48 -34 79q-33 31 -83 31q-110 0 -129 -129l-88 15q34 186 215 186q89 0 150 -54q59 -53 59 -127q0 -105 -98 -150q66 -16 102 -64q32 -45 32 -105q0 -105 -73 -171q-68 -60 -161 -60q-101 0 -165 57q-61 54 -70 144l88 12
q27 -141 140 -141q62 0 104 42q43 44 43 116q0 51 -38 90q-40 40 -98 40q-20 0 -38 -3z" />
    <glyph glyph-name="four" unicode="4" 
d="M414 0h-88v171h-311v81l327 464h72v-464h96v-81h-96v-171zM101 252h225v323z" />
    <glyph glyph-name="five" unicode="5" 
d="M199 622l-38 -192q62 44 135 44q93 0 157 -63q66 -65 66 -168q0 -110 -69 -182q-69 -73 -172 -73q-98 0 -161 53q-64 54 -73 147l92 7q21 -135 138 -135q66 0 108 49q43 50 43 132q0 68 -42 112q-43 45 -111 45q-85 0 -130 -70l-82 11l69 367h356v-84h-286z" />
    <glyph glyph-name="six" unicode="6" 
d="M412 534q-26 113 -121 113q-163 0 -164 -278q63 95 176 95q85 0 146 -63q63 -67 63 -168q0 -106 -63 -175q-62 -70 -159 -70q-177 0 -230 171q-21 69 -21 176q0 384 255 384q182 0 205 -178zM182 110q42 -50 104 -50q59 0 98 48q38 47 38 119q0 71 -39 116
q-38 45 -100 45q-60 0 -101 -43q-42 -44 -42 -113q0 -72 42 -122z" />
    <glyph glyph-name="seven" unicode="7" 
d="M150 0q2 143 70 316q33 86 78 163q47 81 102 143h-350v84h464v-68q-102 -108 -177 -272q-40 -88 -64 -177q-26 -96 -32 -189h-91z" />
    <glyph glyph-name="eight" unicode="8" 
d="M129 666q58 53 149 53q92 0 150 -54q57 -53 57 -133q0 -103 -105 -144q135 -45 135 -181q0 -95 -66 -157t-170 -62t-170 63q-66 61 -66 156q0 146 136 181q-107 39 -107 146q0 80 57 132zM279 422q49 0 83 32q33 32 33 79q0 49 -34 81q-33 33 -83 33t-83 -33
q-33 -32 -33 -77q0 -115 117 -115zM174 102q43 -42 110 -42q58 0 99 39q42 42 42 105q0 64 -43 106q-42 40 -103 40q-65 0 -106 -43q-40 -41 -40 -101q0 -63 41 -104z" />
    <glyph glyph-name="nine" unicode="9" 
d="M142 174q21 -114 125 -114q71 0 115 70q45 71 45 191v16q-58 -93 -169 -93q-92 0 -152 64q-62 65 -62 169q0 106 63 174q64 68 162 68q142 0 208 -130q22 -43 31 -100q7 -47 7 -118q0 -89 -11 -149q-13 -69 -43 -119q-69 -115 -199 -115q-183 0 -205 178zM378 600
q-39 47 -98 47q-61 0 -103 -50q-43 -50 -43 -122q0 -68 41 -112q41 -43 102 -43q63 0 102 45q38 44 38 116t-39 119z" />
    <glyph glyph-name="colon" unicode=":" horiz-adv-x="278" 
d="M189 0h-100v100h100v-100zM189 418h-100v100h100v-100z" />
    <glyph glyph-name="semicolon" unicode=";" horiz-adv-x="278" 
d="M81 -104q54 25 56 104h-50v100h100v-100q0 -105 -82 -141zM187 418h-100v100h100v-100z" />
    <glyph glyph-name="less" unicode="&#x3c;" horiz-adv-x="584" 
d="M529 111l-474 202v82l474 200v-87l-376 -154l376 -156v-87z" />
    <glyph glyph-name="equal" unicode="=" horiz-adv-x="584" 
d="M529 285v-81h-473v81h473zM529 504v-84h-473v84h473z" />
    <glyph glyph-name="greater" unicode="&#x3e;" horiz-adv-x="584" 
d="M529 395v-82l-474 -202v87l376 156l-376 154v87z" />
    <glyph glyph-name="question" unicode="?" 
d="M327 0h-100v100h100v-100zM46 521q26 207 232 207q101 0 166 -56q64 -55 64 -139q0 -63 -40 -114q-17 -21 -46 -49l-57 -52q-30 -28 -40 -65q-5 -16 -6 -37q-2 -14 -2 -40h-84l-1 25q0 108 75 175l50 44q22 21 34 36q27 33 27 73q0 50 -39 87q-41 40 -102 40
q-119 0 -141 -145z" />
    <glyph glyph-name="at" unicode="@" horiz-adv-x="1015" 
d="M295 60q-52 63 -52 160q0 114 76 210q79 99 178 99q92 0 147 -90l16 76h88l-80 -373q-3 -11 -4 -18l-1 -13q0 -31 36 -31q51 0 113 73q33 38 52 85q22 54 22 112q0 133 -100 220q-99 88 -250 88q-178 0 -293 -121q-113 -120 -113 -300q0 -177 111 -275q111 -100 311 -100
q240 0 342 147h88q-31 -62 -102 -117q-75 -58 -165 -83q-69 -19 -164 -19q-233 0 -365 120q-129 117 -129 319q0 204 127 350q132 151 356 151q186 0 306 -113q113 -108 113 -261q0 -74 -26 -142q-25 -63 -69 -113q-90 -102 -197 -102q-55 0 -77 24q-16 17 -20 57
q-70 -81 -148 -81q-76 0 -127 61zM441 71q62 0 117 71q58 75 58 173q0 142 -114 142q-70 0 -122 -82q-47 -76 -47 -163q0 -141 108 -141z" />
    <glyph glyph-name="A" unicode="A" horiz-adv-x="667" 
d="M99 0h-101l275 716h102l293 -716h-108l-84 217h-299zM363 519q-7 18 -12 34q-16 44 -29 88q-13 -67 -39 -137l-78 -210h242z" />
    <glyph glyph-name="B" unicode="B" horiz-adv-x="667" 
d="M73 0v716h268q82 0 129 -20q110 -47 110 -157q0 -107 -101 -158q134 -40 134 -177q0 -126 -112 -179q-31 -15 -73 -20q-33 -5 -82 -5h-273zM168 331v-247h197q11 0 20 1q22 1 37 5q93 22 93 117q0 100 -103 119q-27 5 -79 5h-165zM168 632v-217h176q11 0 19 1q21 0 36 3
q36 7 59 30q28 28 28 73q0 70 -53 94q-22 10 -56 13q-25 3 -66 3h-143z" />
    <glyph glyph-name="C" unicode="C" horiz-adv-x="722" 
d="M684 227q-62 -239 -298 -239q-160 0 -244 98q-91 106 -91 277q0 167 94 267q92 98 244 98q223 0 283 -209l-94 -22q-48 150 -191 150q-238 0 -238 -284q0 -294 233 -294q169 0 207 182z" />
    <glyph glyph-name="D" unicode="D" horiz-adv-x="722" 
d="M326 716q38 0 61 -1q32 -2 57 -7q58 -11 104 -46q123 -93 123 -299q0 -295 -216 -351q-29 -7 -62 -10q-22 -2 -56 -2h-258v716h247zM174 632v-548h152q69 0 108 12q45 13 76 49q63 72 63 219q0 153 -76 222q-33 30 -79 40q-19 4 -45 5q-18 1 -49 1h-150z" />
    <glyph glyph-name="E" unicode="E" horiz-adv-x="667" 
d="M613 0h-534v716h518v-84h-423v-220h396v-84h-396v-244h439v-84z" />
    <glyph glyph-name="F" unicode="F" horiz-adv-x="611" 
d="M175 0h-95v716h483v-84h-388v-222h336v-84h-336v-326z" />
    <glyph glyph-name="G" unicode="G" horiz-adv-x="778" 
d="M623 281h-212v84h303v-265q-141 -112 -297 -112q-164 0 -264 100q-101 101 -101 267q0 167 94 268q98 105 265 105q238 0 292 -212l-85 -24q-11 37 -20 55q-14 30 -39 51q-57 49 -146 49q-126 0 -196 -78q-67 -76 -67 -209q0 -287 275 -287q48 0 109 24q58 22 89 50v134z
" />
    <glyph glyph-name="H" unicode="H" horiz-adv-x="722" 
d="M175 0h-95v716h95v-294h372v294h95v-716h-95v338h-372v-338z" />
    <glyph glyph-name="I" unicode="I" horiz-adv-x="278" 
d="M187 0h-95v716h95v-716z" />
    <glyph glyph-name="J" unicode="J" horiz-adv-x="500" 
d="M421 228q0 -131 -58 -188q-55 -52 -144 -52q-94 0 -144 56q-48 53 -48 147v12l85 12q3 -72 25 -104q26 -38 85 -38q47 0 75 29q20 20 25 52q4 20 4 69v493h95v-488z" />
    <glyph glyph-name="K" unicode="K" horiz-adv-x="667" 
d="M168 0h-95v716h95v-355l355 355h129l-301 -290l314 -426h-125l-255 362l-117 -114v-248z" />
    <glyph glyph-name="L" unicode="L" 
d="M523 0h-448v716h95v-632h353v-84z" />
    <glyph glyph-name="M" unicode="M" horiz-adv-x="833" 
d="M166 0h-91v716h143l169 -507q8 -22 17 -53q4 -10 9 -27q0 -2 2 -6l6 -20l20 63q8 25 18 52l172 498h127v-716h-91v599l-208 -599h-86l-207 609v-609z" />
    <glyph glyph-name="N" unicode="N" horiz-adv-x="722" 
d="M170 0h-91v716h97l376 -562v562h91v-716h-97l-376 562v-562z" />
    <glyph glyph-name="O" unicode="O" horiz-adv-x="778" 
d="M143 627q92 101 234 101q163 0 260 -102q95 -101 95 -269q0 -166 -98 -269q-95 -100 -240 -100q-156 0 -253 106q-94 102 -94 255q0 173 96 278zM213 145q68 -76 176 -76q111 0 177 77q68 77 68 211q0 135 -70 215q-66 75 -170 75q-249 0 -249 -300q0 -125 68 -202z" />
    <glyph glyph-name="P" unicode="P" horiz-adv-x="667" 
d="M172 0h-95v716h270q38 0 60 -1q30 -2 53 -6q54 -10 93 -42q70 -58 70 -152q0 -97 -56 -156q-37 -39 -90 -54q-45 -13 -122 -13h-183v-292zM172 632v-256h185q168 0 168 137q0 51 -38 87q-24 22 -57 28q-15 3 -35 4h-223z" />
    <glyph glyph-name="Q" unicode="Q" horiz-adv-x="778" 
d="M712 -56q-43 16 -83 40q-34 19 -70 48q-80 -44 -170 -44q-156 0 -252 104q-95 102 -95 266t95 268q93 102 235 102q163 0 261 -103q94 -99 94 -254q0 -189 -108 -294q67 -47 121 -67zM410 198q82 -23 135 -68q84 75 84 242q0 121 -68 198t-175 77q-112 0 -178 -76
q-68 -78 -68 -213q0 -136 69 -214q66 -75 175 -75q50 0 97 19q-48 31 -94 41z" />
    <glyph glyph-name="R" unicode="R" horiz-adv-x="722" 
d="M175 0h-95v716h317q33 0 54 -1q27 -2 48 -6q49 -9 84 -37q70 -56 70 -152q0 -165 -202 -194q37 -17 66 -44q34 -32 69 -87l125 -195h-119l-95 149q-69 108 -105 137q-39 31 -108 31h-109v-317zM175 639v-238h204q39 0 60 3q32 4 54 15q62 32 62 101q0 119 -154 119h-226z
" />
    <glyph glyph-name="S" unicode="S" horiz-adv-x="667" 
d="M135 238q10 -79 58 -118q59 -47 153 -47q178 0 178 126q0 80 -128 110l-87 22l-88 24q-147 42 -147 176q0 87 67 141q68 57 183 57q123 0 194 -58q70 -57 75 -157l-91 -6q-15 136 -174 136q-164 0 -164 -107q0 -66 69 -86q46 -14 101 -28l101 -25q81 -18 129 -69
q50 -53 50 -127q0 -90 -69 -150q-74 -64 -196 -64q-144 0 -224 67q-78 65 -80 175z" />
    <glyph glyph-name="T" unicode="T" horiz-adv-x="611" 
d="M352 0h-95v632h-236v84h568v-84h-237v-632z" />
    <glyph glyph-name="U" unicode="U" horiz-adv-x="722" 
d="M174 303q0 -72 8 -108q11 -45 40 -74q48 -48 134 -48q96 0 144 48q30 30 40 75q7 34 7 107v413h95v-413q0 -47 -3 -80q-4 -38 -12 -67q-19 -65 -71 -108q-71 -60 -195 -60q-125 0 -197 60q-52 43 -70 107q-9 29 -12 68q-3 32 -3 80v413h95v-413z" />
    <glyph glyph-name="V" unicode="V" horiz-adv-x="667" 
d="M379 0h-98l-277 716h103l199 -556q12 -36 24 -81q17 57 39 117l193 520h97z" />
    <glyph glyph-name="W" unicode="W" horiz-adv-x="944" 
d="M297 0h-97l-190 716h97l109 -470q0 -2 1 -4l15 -65l15 -77l16 68q9 40 16 65l136 483h114l103 -362q19 -68 34 -137q14 -63 22 -117q16 78 35 156l112 460h95l-196 -716h-91l-162 582q-7 25 -12 48l-5 -21q-2 -12 -5 -21l-11 -43z" />
    <glyph glyph-name="X" unicode="X" horiz-adv-x="667" 
d="M118 0h-114l277 373l-244 343h112l131 -184q18 -25 30 -43q15 -24 27 -45q21 35 57 82l144 190h103l-252 -337l271 -379h-117l-180 255q-12 17 -31 48q-12 -20 -35 -53z" />
    <glyph glyph-name="Y" unicode="Y" horiz-adv-x="667" 
d="M374 0h-95v303l-276 413h116l170 -263q22 -35 43 -74q16 28 38 62q17 28 41 65l138 210h110l-285 -413v-303z" />
    <glyph glyph-name="Z" unicode="Z" horiz-adv-x="611" 
d="M584 0h-566v88l367 458q45 55 74 86h-400v84h513v-84l-402 -497l-43 -51h457v-84z" />
    <glyph glyph-name="bracketleft" unicode="[" horiz-adv-x="278" 
d="M260 -198h-194v914h194v-71h-106v-772h106v-71z" />
    <glyph glyph-name="backslash" unicode="\" horiz-adv-x="278" 
d="M278 -12h-71l-207 740h71z" />
    <glyph glyph-name="bracketright" unicode="]" horiz-adv-x="278" 
d="M212 716v-914h-194v71h106v772h-106v71h194z" />
    <glyph glyph-name="asciicircum" unicode="^" horiz-adv-x="469" 
d="M233 629l-117 -292h-90l173 391h70l174 -391h-89z" />
    <glyph glyph-name="underscore" unicode="_" 
d="M562 -75v-50h-568v50h568z" />
    <glyph glyph-name="grave" unicode="`" horiz-adv-x="333" 
d="M161 720l66 -137h-71l-113 137h118z" />
    <glyph glyph-name="a" unicode="a" 
d="M218 -12q-180 0 -180 149q0 134 165 157l54 7q33 4 52 7q57 9 91 21v16q0 55 -22 80q-29 33 -104 33q-69 0 -100 -29q-22 -20 -35 -70l-86 11q34 160 231 160q127 0 174 -58q21 -25 27 -62q2 -15 3 -35v-222q0 -34 2 -57q4 -57 26 -96h-92q-14 29 -18 64
q-89 -76 -188 -76zM400 260q-37 -15 -92 -25l-87 -14q-44 -9 -64 -25q-25 -20 -25 -57q0 -82 109 -82q73 0 120 49q24 25 32 57q7 24 7 65v32z" />
    <glyph glyph-name="b" unicode="b" 
d="M149 0h-82v716h88v-256q55 70 142 70q98 0 159 -72q61 -71 61 -187q0 -133 -67 -210q-62 -72 -158 -72q-91 0 -143 76v-65zM152 192q5 -37 23 -66q39 -65 110 -65q142 0 142 209q0 84 -37 136q-38 52 -101 52q-62 0 -102 -54q-39 -54 -39 -141q0 -47 4 -71z" />
    <glyph glyph-name="c" unicode="c" horiz-adv-x="500" 
d="M491 179q-14 -91 -74 -141q-58 -49 -143 -49q-235 0 -235 277q0 123 65 194q65 70 180 70q73 0 125 -39q57 -43 73 -125l-85 -13q-24 105 -118 105q-150 0 -150 -196q0 -201 145 -201q111 0 130 129z" />
    <glyph glyph-name="d" unicode="d" 
d="M404 66q-49 -77 -144 -77q-97 0 -159 74q-65 76 -65 199t61 196q60 72 162 72q88 0 139 -71v257h88v-716h-82v66zM168 111q39 -50 100 -50t98 48q40 51 40 142q0 207 -141 207q-139 0 -139 -199q0 -95 42 -148z" />
    <glyph glyph-name="e" unicode="e" 
d="M516 238h-387q9 -177 157 -177q99 0 136 106l91 -11q-45 -167 -223 -167q-252 0 -252 266q0 126 66 201q65 74 176 74q106 0 170 -71q66 -73 66 -199v-22zM423 309q0 3 -1 7l-2 25q-4 19 -10 34q-35 83 -129 83q-62 0 -103 -43q-39 -41 -44 -106h289z" />
    <glyph glyph-name="f" unicode="f" horiz-adv-x="278" 
d="M174 452v-452h-88v452h-78v66h78v56q0 78 31 114q34 40 114 40q35 0 80 -9l-13 -77q-26 5 -53 5q-43 0 -59 -22q-12 -17 -12 -58v-49h100v-66h-100z" />
    <glyph glyph-name="g" unicode="g" 
d="M491 70q0 -99 -17 -150q-45 -130 -217 -130q-97 0 -154 46q-52 42 -52 107l1 14l85 -13q12 -82 124 -82q83 0 119 55q14 23 19 57q3 22 3 68v26q-57 -68 -142 -68q-101 0 -164 74q-62 73 -62 189q0 120 62 194q62 73 164 73q90 0 150 -74v62h81v-448zM269 72q65 0 105 56
q36 49 36 136q0 92 -42 145q-39 49 -103 49q-62 0 -101 -50q-40 -52 -40 -139q0 -197 145 -197z" />
    <glyph glyph-name="h" unicode="h" 
d="M156 0h-88v716h88v-257q61 71 156 71q74 0 123 -39q56 -45 56 -163v-328h-88v328q0 126 -111 126q-76 0 -115 -62q-13 -21 -18 -50q-3 -21 -3 -58v-284z" />
    <glyph glyph-name="i" unicode="i" horiz-adv-x="222" 
d="M156 0h-88v518h88v-518zM156 616h-88v100h88v-100z" />
    <glyph glyph-name="j" unicode="j" horiz-adv-x="222" 
d="M155 518v-546q0 -89 -24 -131q-30 -51 -103 -51q-39 0 -72 9l17 74l29 -6q7 -1 13 -1q52 0 52 108v544h88zM155 716v-100h-88v100h88z" />
    <glyph glyph-name="k" unicode="k" horiz-adv-x="500" 
d="M154 0h-88v716h88v-408l208 210h114l-199 -192l219 -326h-109l-171 265l-62 -59v-206z" />
    <glyph glyph-name="l" unicode="l" horiz-adv-x="222" 
d="M154 0h-88v716h88v-716z" />
    <glyph glyph-name="m" unicode="m" horiz-adv-x="833" 
d="M145 446q54 84 158 84q113 0 145 -91q62 91 160 91q161 0 161 -174v-356h-88v327q0 60 -15 88q-21 39 -78 39q-56 0 -89 -36q-37 -40 -37 -117v-301h-88v337q0 117 -92 117q-73 0 -107 -60q-13 -23 -18 -56q-3 -25 -3 -69v-269h-88v518h79v-72z" />
    <glyph glyph-name="n" unicode="n" 
d="M156 0h-88v518h79v-73q58 85 165 85q110 0 155 -76q15 -27 20 -63q2 -15 3 -35v-356h-88v315q0 35 -3 53q-4 27 -17 45q-30 41 -89 41q-85 0 -119 -65q-18 -34 -18 -106v-283z" />
    <glyph glyph-name="o" unicode="o" 
d="M104 461q65 69 174 69q120 0 189 -87q54 -69 54 -184q0 -130 -69 -202q-65 -68 -174 -68q-121 0 -189 86q-54 69 -54 184q0 129 69 202zM278 61q69 0 110 51q43 53 43 147q0 199 -153 199t-153 -199q0 -198 153 -198z" />
    <glyph glyph-name="p" unicode="p" 
d="M148 451q56 79 149 79q100 0 160 -73q61 -72 61 -190q0 -128 -66 -205q-63 -73 -160 -73q-84 0 -136 65v-253h-88v717h80v-67zM286 61q62 0 101 50q41 54 41 152q0 198 -138 198q-62 0 -102 -55q-41 -57 -41 -150q0 -195 139 -195z" />
    <glyph glyph-name="q" unicode="q" 
d="M486 -199h-87v254q-48 -66 -136 -66q-96 0 -160 74q-66 77 -66 201q0 121 61 194q60 72 159 72q95 0 150 -81v69h79v-717zM168 112q39 -51 102 -51q60 0 97 48q40 52 40 144q0 95 -40 152q-39 56 -103 56q-137 0 -137 -200q0 -95 41 -149z" />
    <glyph glyph-name="r" unicode="r" horiz-adv-x="333" 
d="M152 0h-88v518h79v-78q25 45 45 64q29 26 69 26q45 0 89 -28l-30 -81q-32 19 -67 19q-97 0 -97 -168v-272z" />
    <glyph glyph-name="s" unicode="s" horiz-adv-x="500" 
d="M118 168q15 -107 134 -107q120 0 120 82q0 37 -51 58q-19 8 -52 16l-60 15q-36 9 -60 18q-31 12 -52 27q-51 38 -51 104q0 65 50 106q53 43 142 43q102 0 156 -48q23 -20 34 -45q9 -20 14 -52l-86 -12q-12 85 -113 85q-112 0 -112 -68q0 -35 52 -56q19 -7 53 -15l61 -15
q36 -10 60 -19q32 -12 53 -28q52 -38 52 -104q0 -69 -55 -116q-57 -48 -147 -48q-200 0 -229 166z" />
    <glyph glyph-name="t" unicode="t" horiz-adv-x="278" 
d="M168 452v-310q0 -22 1 -31q1 -14 5 -23q10 -19 43 -19q7 0 18 2l21 3l13 -78q-36 -8 -65 -8q-84 0 -109 50q-10 19 -13 50q-2 13 -2 29v335h-64v66h64v129l88 53v-182h88v-66h-88z" />
    <glyph glyph-name="u" unicode="u" 
d="M408 76q-61 -88 -165 -88q-107 0 -153 76q-16 26 -21 62q-2 15 -3 35v357h88v-328q0 -126 113 -126q53 0 93 40q24 24 32 58q7 28 7 79v277h88v-518h-79v76z" />
    <glyph glyph-name="v" unicode="v" horiz-adv-x="500" 
d="M293 0h-83l-197 518h93l129 -362l16 -53q14 50 32 99l115 316h91z" />
    <glyph glyph-name="w" unicode="w" horiz-adv-x="722" 
d="M256 0h-92l-159 518h91l113 -410q8 37 27 107l82 303h91l89 -345q9 -31 14 -54l119 399h86l-163 -518h-91l-83 311q-6 21 -12 50l-4 20q-2 12 -4 18z" />
    <glyph glyph-name="x" unicode="x" horiz-adv-x="500" 
d="M113 0h-106l189 270l-175 248h110l80 -121q17 -25 36 -58q15 24 39 57l88 122h105l-179 -243l193 -275h-108l-118 179q-2 2 -2 3q-9 15 -15 23z" />
    <glyph glyph-name="y" unicode="y" horiz-adv-x="500" 
d="M491 518l-197 -527q-3 -6 -4 -11l-4 -10q-5 -12 -8 -21q-9 -23 -16 -39q-17 -40 -34 -64q-41 -56 -109 -56q-16 0 -32 4q-7 1 -14 3l-11 3l-10 83l23 -5q15 -3 29 -3q50 0 72 34q9 13 18 39l19 51l-197 519h95l108 -300q19 -53 37 -120l13 47q10 35 24 72l110 301h88z
" />
    <glyph glyph-name="z" unicode="z" horiz-adv-x="500" 
d="M479 0h-459v71l330 379q-46 -3 -99 -3h-211v71h424v-57l-316 -369q-3 -3 -4 -3l-16 -18q36 3 56 4q32 2 55 2h240v-77z" />
    <glyph glyph-name="braceleft" unicode="{" horiz-adv-x="334" 
d="M266 -210q-11 0 -20 1q-23 2 -42 11q-73 34 -73 165v54q0 29 -1 48q-2 50 -9 79q-19 69 -92 71v80q73 2 92 70q8 29 10 79q1 19 1 48v54q0 133 72 166q19 9 42 12q9 1 20 1h46v-77h-15q-51 0 -67 -18q-17 -19 -17 -83v-72q0 -100 -22 -146t-81 -74q60 -25 83 -79
q20 -48 20 -142v-71q0 -63 17 -82q16 -18 67 -18h15v-77h-46z" />
    <glyph glyph-name="bar" unicode="|" horiz-adv-x="260" 
d="M169 -210h-77v938h77v-938z" />
    <glyph glyph-name="braceright" unicode="}" horiz-adv-x="334" 
d="M24 729h47l20 -2q22 -2 41 -11q73 -34 73 -166v-54q0 -29 1 -48q2 -50 10 -79q18 -68 91 -70v-80q-73 -2 -91 -70q-8 -29 -10 -79q-1 -20 -1 -49v-54q0 -131 -73 -165q-18 -8 -41 -10l-30 -2h-37v77h15q51 0 67 18q18 20 18 82v71q0 95 19 142q22 54 82 79q-59 28 -80 74
t-21 146v72q0 63 -18 83q-16 18 -67 18h-15v77z" />
    <glyph glyph-name="asciitilde" unicode="~" horiz-adv-x="584" 
d="M543 432v-103q-58 -55 -133 -55q-34 0 -69 10q-23 7 -59 22l-14 6q-8 3 -13 6l-28 10q-30 10 -57 10q-37 0 -70 -19q-23 -14 -57 -47v100q53 59 136 59q33 0 69 -10q24 -8 61 -23l28 -13l28 -11q30 -10 52 -10q63 0 126 68z" />
    <glyph glyph-name="uni0080" horiz-adv-x="667" 
d="M177 217l-78 -217h-101l275 716h102l293 -716h-108l-84 217h-299zM447 294l-74 198l-10 27q-7 18 -12 34q-16 44 -29 88q-13 -67 -39 -137l-78 -210h242zM288 903v-100h-91v100h91zM470 903v-100h-91v100h91z" />
    <glyph glyph-name="uni0081" horiz-adv-x="667" 
d="M177 217l-78 -217h-101l275 716h102l293 -716h-108l-84 217h-299zM447 294l-74 198l-10 27q-7 18 -12 34q-16 44 -29 88q-13 -67 -39 -137l-78 -210h242zM485 854v-71h-305v71h305z" />
    <glyph glyph-name="uni0082" 
d="M218 -12q-180 0 -180 149q0 134 165 157l54 7q33 4 52 7q57 9 91 21v16q0 55 -22 80q-29 33 -104 33q-69 0 -100 -29q-22 -20 -35 -70l-86 11q34 160 231 160q127 0 174 -58q21 -25 27 -62q2 -15 3 -35v-222q0 -34 2 -57q4 -57 26 -96h-92q-14 29 -18 64
q-89 -76 -188 -76zM400 260q-37 -15 -92 -25l-87 -14q-44 -9 -64 -25q-25 -20 -25 -57q0 -82 109 -82q73 0 120 49q24 25 32 57q7 24 7 65v32zM429 600h-305v71h305v-71z" />
    <glyph glyph-name="uni0083" horiz-adv-x="667" 
d="M613 84v-84h-534v716h518v-84h-423v-220h396v-84h-396v-244h439zM468 903l-107 -137h-73l65 137h115z" />
    <glyph glyph-name="uni0084" horiz-adv-x="667" 
d="M375 716l293 -716h-49q-14 -36 -14 -66q0 -76 73 -76q35 0 79 22v-58q-55 -29 -107 -29q-107 0 -107 107q0 22 5 50q4 20 12 50l-84 217h-299l-78 -217h-101l275 716h102zM447 294l-74 198l-10 27q-7 18 -12 34q-16 44 -29 88q-13 -67 -39 -137l-78 -210h242z" />
    <glyph glyph-name="uni0085" unicode="&#x85;" horiz-adv-x="778" 
d="M143 627q92 101 234 101q163 0 260 -102q95 -101 95 -269q0 -166 -98 -269q-95 -100 -240 -100q-156 0 -253 106q-94 102 -94 255q0 173 96 278zM213 145q68 -76 176 -76q111 0 177 77q68 77 68 211q0 135 -70 215q-66 75 -170 75q-249 0 -249 -300q0 -125 68 -202z
M344 803h-91v100h91v-100zM526 803h-91v100h91v-100z" />
    <glyph glyph-name="uni0086" horiz-adv-x="722" 
d="M174 303q0 -72 8 -108q11 -45 40 -74q48 -48 134 -48q96 0 144 48q30 30 40 75q7 34 7 107v413h95v-413q0 -47 -3 -80q-4 -38 -12 -67q-19 -65 -71 -108q-71 -60 -195 -60q-125 0 -197 60q-52 43 -70 107q-9 29 -12 68q-3 32 -3 80v413h95v-413zM315 803h-91v100h91v-100
zM498 803h-91v100h91v-100z" />
    <glyph glyph-name="uni0087" 
d="M218 -12q-180 0 -180 149q0 134 165 157l54 7q33 4 52 7q57 9 91 21v16q0 55 -22 80q-29 33 -104 33q-69 0 -100 -29q-22 -20 -35 -70l-86 11q34 160 231 160q127 0 174 -58q21 -25 27 -62q2 -15 3 -35v-222q0 -34 2 -57q4 -57 26 -96h-92q-14 29 -18 64
q-89 -76 -188 -76zM400 260q-37 -15 -92 -25l-87 -14q-44 -9 -64 -25q-25 -20 -25 -57q0 -82 109 -82q73 0 120 49q24 25 32 57q7 24 7 65v32zM292 583h-73l65 137h115z" />
    <glyph glyph-name="uni0088" 
d="M483 0q-14 -38 -14 -66q0 -76 73 -76q35 0 79 22v-58q-55 -29 -108 -29q-106 0 -106 107q0 22 5 50q4 20 12 50q-14 29 -18 64q-89 -76 -188 -76q-180 0 -180 149q0 134 165 157l54 7q33 4 52 7q57 9 91 21v16q0 55 -22 80q-29 33 -104 33q-69 0 -100 -29
q-22 -20 -35 -70l-86 11q34 160 231 160q127 0 174 -58q21 -25 27 -62q2 -15 3 -35v-222q0 -34 2 -57q4 -57 26 -96h-33zM400 260q-37 -15 -92 -25l-87 -14q-44 -9 -64 -25q-25 -20 -25 -57q0 -82 109 -82q73 0 120 49q24 25 32 57q7 24 7 65v32z" />
    <glyph glyph-name="uni0089" horiz-adv-x="722" 
d="M684 227q-62 -239 -298 -239q-160 0 -244 98q-91 106 -91 277q0 167 94 267q92 98 244 98q223 0 283 -209l-94 -22q-48 150 -191 150q-238 0 -238 -284q0 -294 233 -294q169 0 207 182zM321 903l55 -83l54 83h99l-109 -137h-94l-105 137h100z" />
    <glyph glyph-name="uni008A" 
d="M218 -12q-180 0 -180 149q0 134 165 157l54 7q33 4 52 7q57 9 91 21v16q0 55 -22 80q-29 33 -104 33q-69 0 -100 -29q-22 -20 -35 -70l-86 11q34 160 231 160q127 0 174 -58q21 -25 27 -62q2 -15 3 -35v-222q0 -34 2 -57q4 -57 26 -96h-92q-14 29 -18 64
q-89 -76 -188 -76zM400 260q-37 -15 -92 -25l-87 -14q-44 -9 -64 -25q-25 -20 -25 -57q0 -82 109 -82q73 0 120 49q24 25 32 57q7 24 7 65v32zM232 620h-91v100h91v-100zM414 620h-91v100h91v-100z" />
    <glyph glyph-name="uni008B" horiz-adv-x="500" 
d="M491 179q-14 -91 -74 -141q-58 -49 -143 -49q-235 0 -235 277q0 123 65 194q65 70 180 70q73 0 125 -39q57 -43 73 -125l-85 -13q-24 105 -118 105q-150 0 -150 -196q0 -201 145 -201q111 0 130 129zM218 720l56 -83l53 83h100l-110 -137h-93l-106 137h100z" />
    <glyph glyph-name="uni008C" horiz-adv-x="722" 
d="M684 227q-62 -239 -298 -239q-160 0 -244 98q-91 106 -91 277q0 167 94 267q92 98 244 98q223 0 283 -209l-94 -22q-48 150 -191 150q-238 0 -238 -284q0 -294 233 -294q169 0 207 182zM382 766h-73l66 137h114z" />
    <glyph glyph-name="uni008D" horiz-adv-x="500" 
d="M491 179q-14 -91 -74 -141q-58 -49 -143 -49q-235 0 -235 277q0 123 65 194q65 70 180 70q73 0 125 -39q57 -43 73 -125l-85 -13q-24 105 -118 105q-150 0 -150 -196q0 -201 145 -201q111 0 130 129zM280 583h-73l65 137h115z" />
    <glyph glyph-name="uni008E" 
d="M516 238h-387q9 -177 157 -177q99 0 136 106l91 -11q-45 -167 -223 -167q-252 0 -252 266q0 126 66 201q65 74 176 74q106 0 170 -71q66 -73 66 -199v-22zM423 309q0 3 -1 7l-2 25q-4 19 -10 34q-35 83 -129 83q-62 0 -103 -43q-39 -41 -44 -106h289zM292 583h-73l65 137
h115z" />
    <glyph glyph-name="uni008F" horiz-adv-x="611" 
d="M584 84v-84h-566v88l367 458q45 55 74 86h-400v84h513v-84l-402 -497l-43 -51h457zM423 903l-107 -137h-73l65 137h115z" />
    <glyph glyph-name="uni0090" horiz-adv-x="500" 
d="M479 0h-459v71l330 379q-46 -3 -99 -3h-211v71h424v-57l-316 -369q-3 -3 -4 -3l-16 -18q36 3 56 4q32 2 55 2h240v-77zM265 583h-73l65 137h115z" />
    <glyph glyph-name="uni0091" horiz-adv-x="722" 
d="M326 716q38 0 61 -1q32 -2 57 -7q58 -11 104 -46q123 -93 123 -299q0 -295 -216 -351q-29 -7 -62 -10q-22 -2 -56 -2h-258v716h247zM174 632v-548h152q69 0 108 12q45 13 76 49q63 72 63 219q0 153 -76 222q-33 30 -79 40q-19 4 -45 5q-18 1 -49 1h-150zM328 903l56 -83
l53 83h100l-110 -137h-93l-106 137h100z" />
    <glyph glyph-name="uni0092" horiz-adv-x="278" 
d="M183 0h-88v518h88v-518zM154 583h-73l65 137h115z" />
    <glyph glyph-name="uni0093" horiz-adv-x="615" 
d="M403 66q-49 -77 -144 -77q-97 0 -159 74q-65 76 -65 199t61 196q60 72 162 72q88 0 139 -71v257h88v-716h-82v66zM167 111q39 -50 100 -50t98 48q40 51 40 142q0 207 -141 207q-139 0 -139 -199q0 -95 42 -148zM521 532q48 22 50 94h-43v90h88v-90q0 -97 -73 -128z" />
    <glyph glyph-name="uni0094" horiz-adv-x="667" 
d="M613 84v-84h-534v716h518v-84h-423v-220h396v-84h-396v-244h439zM499 854v-71h-305v71h305z" />
    <glyph glyph-name="uni0095" 
d="M516 238h-387q9 -177 157 -177q99 0 136 106l91 -11q-45 -167 -223 -167q-252 0 -252 266q0 126 66 201q65 74 176 74q106 0 170 -71q66 -73 66 -199v-22zM423 309q0 3 -1 7l-2 25q-4 19 -10 34q-35 83 -129 83q-62 0 -103 -43q-39 -41 -44 -106h289zM430 600h-305v71
h305v-71z" />
    <glyph glyph-name="uni0096" horiz-adv-x="667" 
d="M613 84v-84h-534v716h518v-84h-423v-220h396v-84h-396v-244h439zM401 875v-109h-109v109h109z" />
    <glyph glyph-name="uni0097" 
d="M104 461q65 69 174 69q120 0 189 -87q54 -69 54 -184q0 -130 -69 -202q-65 -68 -174 -68q-121 0 -189 86q-54 69 -54 184q0 129 69 202zM168 112q41 -51 110 -51q153 0 153 198q0 199 -153 199t-153 -199q0 -94 43 -147zM293 583h-73l65 137h115z" />
    <glyph glyph-name="uni0098" 
d="M516 238h-387q9 -177 157 -177q99 0 136 106l91 -11q-45 -167 -223 -167q-252 0 -252 266q0 126 66 201q65 74 176 74q106 0 170 -71q66 -73 66 -199v-22zM423 309q0 3 -1 7l-2 25q-4 19 -10 34q-35 83 -129 83q-62 0 -103 -43q-39 -41 -44 -106h289zM332 583h-109v109
h109v-109z" />
    <glyph glyph-name="uni0099" 
d="M104 461q65 69 174 69q120 0 189 -87q54 -69 54 -184q0 -130 -69 -202q-65 -68 -174 -68q-121 0 -189 86q-54 69 -54 184q0 129 69 202zM168 112q41 -51 110 -51q153 0 153 198q0 199 -153 199t-153 -199q0 -94 43 -147zM333 583l-54 83l-55 -83h-100l105 137h94
l109 -137h-99z" />
    <glyph glyph-name="uni009A" 
d="M104 461q65 69 174 69q120 0 189 -87q54 -69 54 -184q0 -130 -69 -202q-65 -68 -174 -68q-121 0 -189 86q-54 69 -54 184q0 129 69 202zM168 112q41 -51 110 -51q153 0 153 198q0 199 -153 199t-153 -199q0 -94 43 -147zM233 620h-91v100h91v-100zM415 620h-91v100h91
v-100z" />
    <glyph glyph-name="uni009B" 
d="M104 461q65 69 174 69q120 0 189 -87q54 -69 54 -184q0 -130 -69 -202q-65 -68 -174 -68q-121 0 -189 86q-54 69 -54 184q0 129 69 202zM168 112q41 -51 110 -51q153 0 153 198q0 199 -153 199t-153 -199q0 -94 43 -147zM378 708h63q-4 -111 -93 -111q-20 0 -40 7
q-14 5 -34 16q-3 1 -8 4q-5 2 -8 4l-14 7q-16 7 -28 7q-36 0 -36 -41v-6h-65v10q0 41 27 71q28 31 73 31q17 0 36 -6q13 -5 33 -14q1 -1 4 -2q3 -2 4 -2q4 -3 7 -4l15 -7q16 -6 28 -6q30 0 36 42z" />
    <glyph glyph-name="uni009C" 
d="M408 76q-61 -88 -165 -88q-107 0 -153 76q-16 26 -21 62q-2 15 -3 35v357h88v-328q0 -126 113 -126q53 0 93 40q24 24 32 58q7 28 7 79v277h88v-518h-79v76zM291 583h-73l65 137h115z" />
    <glyph glyph-name="uni009D" horiz-adv-x="667" 
d="M613 84v-84h-534v716h518v-84h-423v-220h396v-84h-396v-244h439zM199 903h101l55 -83l54 83h99l-109 -137h-94z" />
    <glyph glyph-name="uni009E" 
d="M516 238h-387q9 -177 157 -177q99 0 136 106l91 -11q-45 -167 -223 -167q-252 0 -252 266q0 126 66 201q65 74 176 74q106 0 170 -71q66 -73 66 -199v-22zM423 309q0 3 -1 7l-2 25q-4 19 -10 34q-35 83 -129 83q-62 0 -103 -43q-39 -41 -44 -106h289zM231 720l55 -83
l54 83h99l-110 -137h-93l-106 137h101z" />
    <glyph glyph-name="uni009F" 
d="M408 76q-61 -88 -165 -88q-107 0 -153 76q-16 26 -21 62q-2 15 -3 35v357h88v-328q0 -126 113 -126q53 0 93 40q24 24 32 58q7 28 7 79v277h88v-518h-79v76zM231 620h-91v100h91v-100zM413 620h-91v100h91v-100z" />
    <glyph glyph-name="uni00A0" unicode="&#xa0;" 
d="M321 -169h-88v593h-195v77h195v198h88v-198h196v-77h-196v-593z" />
    <glyph glyph-name="exclamdown" unicode="&#xa1;" horiz-adv-x="400" 
d="M105 688q39 40 96 40q56 0 96 -39q39 -40 39 -96t-40 -96q-39 -40 -95 -40t-96 40t-40 96t40 95zM143 535q24 -25 58 -25t58 24q24 25 24 59q0 82 -82 82q-34 0 -59 -24q-24 -24 -24 -58t25 -58z" />
    <glyph glyph-name="cent" unicode="&#xa2;" horiz-adv-x="667" 
d="M613 84v-84h-138q-13 -35 -13 -66q0 -76 72 -76q35 0 79 22v-58q-55 -29 -107 -29q-106 0 -106 107q0 40 16 100h-337v716h518v-84h-423v-220h396v-84h-396v-244h439z" />
    <glyph glyph-name="sterling" unicode="&#xa3;" 
d="M349 395v-71h-139q8 -17 9 -34l-1 -24q0 -13 -3 -29q-4 -20 -13 -41q-22 -53 -69 -103q41 11 79 11q24 0 50 -5l91 -22q26 -5 49 -5q27 0 53 8q20 6 47 19l28 -81l-26 -11l-29 -9q-34 -10 -69 -10q-21 0 -48 7l-25 7q-5 1 -13 4l-13 4q-33 10 -57 15q-35 7 -68 7
q-23 0 -58 -11q-41 -13 -75 -35l-34 85q51 28 80 75q33 51 33 116q0 30 -9 62h-96v71h75l-4 14q-3 8 -4 15q-5 17 -8 32q-8 38 -8 76q0 82 61 138q63 58 163 58q185 0 214 -185l-88 -13q-16 126 -131 126q-54 0 -90 -35q-35 -35 -35 -88q0 -20 6 -54q7 -42 21 -84h154z" />
    <glyph glyph-name="currency" unicode="&#xa4;" 
d="M137 681q50 47 130 47q181 0 204 -169l-91 -10q-9 53 -31 78q-25 29 -74 29q-100 0 -100 -79q0 -48 89 -104l107 -67q52 -33 79 -55q64 -54 64 -125q0 -56 -34 -91q-25 -26 -78 -48q78 -60 78 -137q0 -68 -53 -113q-55 -46 -141 -46q-191 0 -214 175l89 12
q25 -115 126 -115q103 0 103 86q0 49 -90 106l-92 59q-50 33 -90 61q-76 53 -76 141q0 104 110 137q-62 59 -62 119q0 65 47 109zM429 210q0 51 -59 91q-29 20 -66 44l-27 18q-16 10 -24 16q-47 31 -58 40q-72 -40 -72 -93t41 -80l157 -103q6 -3 9 -6q20 -12 28 -18
q71 36 71 91z" />
    <glyph glyph-name="yen" unicode="&#xa5;" horiz-adv-x="350" 
d="M88 438q36 36 87 36t87 -36t36 -87t-36 -87q-36 -37 -87 -37t-87 37q-37 36 -37 87t37 87z" />
    <glyph glyph-name="brokenbar" unicode="&#xa6;" horiz-adv-x="537" 
d="M276 -199h-80v511q-92 4 -145 59q-53 54 -53 142q0 91 58 145q61 58 173 58h309v-84h-69v-831h-84v831h-109v-831z" />
    <glyph glyph-name="section" unicode="&#xa7;" horiz-adv-x="611" 
d="M418 339q11 -9 30 -22l35 -22q44 -30 65 -56q30 -37 30 -84q0 -72 -50 -119q-51 -48 -128 -48q-125 0 -178 117l76 36q44 -81 100 -81q37 0 63 24q27 26 27 65q0 28 -30 56q-11 11 -30 24l-35 24q-22 14 -35 25q-18 14 -30 27q-30 33 -30 71q0 24 13 52q7 18 27 51
q10 18 15 25q8 14 13 25q12 28 12 50q0 77 -100 77q-67 0 -94 -47q-23 -40 -23 -125v-484h-88v488q0 93 22 137q50 103 181 103q86 0 138 -41q49 -40 49 -99q0 -29 -12 -60q-8 -22 -25 -53q-2 -2 -4 -6l-17 -29q-3 -5 -5 -10q-12 -24 -12 -41q0 -26 30 -50z" />
    <glyph glyph-name="dieresis" unicode="&#xa8;" horiz-adv-x="737" 
d="M271 156h-64v396h136q40 0 59 -2q30 -2 49 -11q62 -28 62 -91q0 -105 -113 -115q39 -16 92 -100l48 -77h-78l-35 62q-37 64 -56 83q-24 23 -62 23h-38v-168zM271 498v-119h78q96 0 96 60q0 36 -32 50q-22 9 -69 9h-73zM630 620q108 -108 108 -260t-108 -261
q-108 -108 -261 -108q-152 0 -261 108q-108 108 -108 261t108 261q108 107 261 107t261 -108zM152 577q-90 -90 -90 -217t90 -218q90 -90 217 -90t217 90q90 91 90 218t-90 217t-217 90t-217 -90z" />
    <glyph glyph-name="copyright" unicode="&#xa9;" horiz-adv-x="737" 
d="M547 282q-31 -133 -177 -133q-194 0 -194 216q0 89 52 144q53 57 145 57q131 0 166 -115l-58 -14q-30 75 -114 75q-125 0 -125 -156q0 -150 127 -150q39 0 71 23q36 25 47 71zM630 620q108 -108 108 -260t-108 -261q-108 -108 -261 -108q-152 0 -261 108
q-108 108 -108 261t108 261q108 107 261 107t261 -108zM152 577q-90 -90 -90 -217t90 -218q90 -90 217 -90t217 90q90 91 90 218t-90 217t-217 90t-217 -90z" />
    <glyph glyph-name="ordfeminine" unicode="&#xaa;" horiz-adv-x="1000" 
d="M305 318h-66v339h-129v59h325v-59h-130v-339zM540 318h-60v398h98l100 -318l97 318h96v-398h-61v334l-102 -334h-60l-108 339v-339z" />
    <glyph glyph-name="guillemotleft" unicode="&#xab;" 
d="M513 156q-45 -163 -217 -167q-10 -32 -10 -55q0 -76 73 -76q35 0 79 22v-58q-56 -29 -96 -29q-118 0 -118 107q0 21 5 47l10 44q-92 13 -146 81q-55 71 -55 183q0 126 66 201q65 74 176 74q106 0 170 -71q66 -73 66 -199v-22h-387q9 -177 157 -177q99 0 136 106zM423 309
q0 3 -1 7l-2 25q-4 19 -10 34q-35 83 -129 83q-62 0 -103 -43q-39 -41 -44 -106h289z" />
    <glyph glyph-name="logicalnot" unicode="&#xac;" horiz-adv-x="333" 
d="M122 620h-91v100h91v-100zM304 620h-91v100h91v-100z" />
    <glyph glyph-name="uni00AD" unicode="&#xad;" horiz-adv-x="722" 
d="M326 716q38 0 61 -1q31 -2 56 -7q60 -11 105 -46q123 -93 123 -298q0 -241 -154 -327q-44 -25 -94 -33q-19 -3 -43 -4h-301v325h-79v66h79v325h247zM174 325v-241h152q68 0 107 12q45 13 76 49q64 74 64 225q0 147 -77 216q-33 30 -78 40q-20 4 -45 5q-18 1 -49 1h-150
v-241h197v-66h-197z" />
    <glyph glyph-name="registered" unicode="&#xae;" 
d="M491 70q0 -99 -17 -150q-45 -130 -217 -130q-97 0 -154 46q-52 42 -52 107l1 14l85 -13q12 -82 124 -82q83 0 119 55q14 23 19 57q3 22 3 68v26q-57 -68 -142 -68q-101 0 -164 74q-62 73 -62 189q0 120 62 194q62 73 164 73q90 0 150 -74v62h81v-448zM269 72q65 0 105 56
q36 49 36 136q0 92 -42 145q-39 49 -103 49q-62 0 -101 -50q-40 -52 -40 -139q0 -197 145 -197zM307 702q-35 -15 -44 -60h38v-71h-84v48q0 43 13 68q15 32 55 48z" />
    <glyph glyph-name="macron" unicode="&#xaf;" horiz-adv-x="280" 
d="M152 0q-14 -38 -14 -66q0 -76 73 -76q35 0 79 22v-58q-56 -29 -96 -29q-118 0 -118 107q0 42 17 101v715h95v-716h-36z" />
    <glyph glyph-name="degree" unicode="&#xb0;" horiz-adv-x="222" 
d="M127 0q-14 -38 -14 -66q0 -76 73 -76q35 0 79 22v-58q-55 -29 -108 -29q-106 0 -106 107q0 26 6 55l11 45v518h88v-518h-29zM156 616h-88v100h88v-100z" />
    <glyph glyph-name="plusminus" unicode="&#xb1;" horiz-adv-x="278" 
d="M187 716v-716h-95v716h95zM292 854v-71h-305v71h305z" />
    <glyph glyph-name="uni00B2" unicode="&#xb2;" horiz-adv-x="584" 
d="M529 170l-473 202v82l473 200v-87l-375 -154l375 -156v-87zM529 135v-84h-473v84h473z" />
    <glyph glyph-name="uni00B3" unicode="&#xb3;" horiz-adv-x="584" 
d="M528 454v-82l-473 -202v87l376 156l-376 154v87zM528 135v-84h-473v84h473z" />
    <glyph glyph-name="acute" unicode="&#xb4;" horiz-adv-x="278" 
d="M184 0h-88v518h88v-518zM292 600h-305v71h305v-71z" />
    <glyph glyph-name="mu" unicode="&#xb5;" horiz-adv-x="667" 
d="M168 248v-248h-95v716h95v-355l355 355h129l-301 -290l314 -426h-125l-255 362zM376 -106q0 -42 -12 -67q-15 -34 -55 -50l-22 34q35 16 44 59h-39v71h84v-47z" />
    <glyph glyph-name="paragraph" unicode="&#xb6;" 
d="M404 66q-49 -77 -144 -77q-97 0 -159 74q-65 76 -65 199t61 196q60 72 162 72q88 0 139 -71v136h-168v66h168v55h89v-55h70v-66h-70v-595h-83v66zM168 111q39 -50 100 -50t98 48q40 51 40 142q0 207 -141 207q-139 0 -139 -199q0 -95 42 -148z" />
    <glyph glyph-name="periodcentered" unicode="&#xb7;" horiz-adv-x="713" 
d="M693 103l-31 -202h-641v17l327 406l-327 399v18h624l13 -165h-19q-15 125 -122 125h-361l274 -335l-307 -381h400q121 0 151 122z" />
    <glyph glyph-name="cedilla" unicode="&#xb8;" horiz-adv-x="222" 
d="M66 0v281l-63 -54v77l63 53v359h88v-284l66 56v-77l-66 -56v-355h-88z" />
    <glyph glyph-name="uni00B9" unicode="&#xb9;" 
d="M523 0h-448v716h95v-632h353v-84zM243 -189q36 17 45 59h-39v71h84v-47q0 -42 -13 -68q-16 -33 -55 -49z" />
    <glyph glyph-name="ordmasculine" unicode="&#xba;" horiz-adv-x="222" 
d="M153 0h-88v716h88v-716zM62 -189q35 16 44 59h-41v71h88v-47q0 -42 -13 -68q-16 -33 -56 -49z" />
    <glyph glyph-name="guillemotright" unicode="&#xbb;" 
d="M523 0h-448v716h95v-632h353v-84zM255 512q54 25 56 104h-50v100h100v-100q0 -107 -81 -142z" />
    <glyph glyph-name="onequarter" unicode="&#xbc;" horiz-adv-x="292" 
d="M154 0h-88v716h88v-716zM195 532q48 22 50 94h-43v90h88v-90q0 -97 -73 -128z" />
    <glyph glyph-name="onehalf" unicode="&#xbd;" 
d="M523 0h-448v716h95v-632h353v-84zM314 766h-73l65 137h115z" />
    <glyph glyph-name="threequarters" unicode="&#xbe;" horiz-adv-x="222" 
d="M154 0h-88v716h88v-716zM107 752h-73l65 137h115z" />
    <glyph glyph-name="questiondown" unicode="&#xbf;" horiz-adv-x="722" 
d="M169 0h-91v716h97l376 -562v562h91v-716h-97l-376 562v-562zM321 -189q22 11 33 27q6 11 11 32h-39v71h84v-47q0 -42 -12 -67q-15 -34 -55 -50z" />
    <glyph glyph-name="Agrave" unicode="&#xc0;" 
d="M156 0h-88v518h79v-73q58 85 165 85q110 0 155 -76q15 -27 20 -63q2 -15 3 -35v-356h-88v315q0 35 -3 53q-4 27 -17 45q-30 41 -89 41q-85 0 -119 -65q-18 -34 -18 -106v-283zM232 -189q22 11 33 27q6 11 11 32h-39v71h84v-47q0 -42 -12 -67q-15 -34 -55 -50z" />
    <glyph glyph-name="Aacute" unicode="&#xc1;" horiz-adv-x="722" 
d="M170 0h-91v716h97l376 -562v562h91v-716h-97l-376 562v-562zM376 766h-73l65 137h115z" />
    <glyph glyph-name="Acircumflex" unicode="&#xc2;" horiz-adv-x="584" 
d="M530 504v-297h-84v213h-390v84h474z" />
    <glyph glyph-name="Atilde" unicode="&#xc3;" horiz-adv-x="552" 
d="M388 119l127 794h36l-152 -951l-243 499l-97 -45l-16 31l147 74z" />
    <glyph glyph-name="Adieresis" unicode="&#xc4;" 
d="M156 0h-88v518h79v-73q58 85 165 85q110 0 155 -76q15 -27 20 -63q2 -15 3 -35v-356h-88v315q0 35 -3 53q-4 27 -17 45q-30 41 -89 41q-85 0 -119 -65q-18 -34 -18 -106v-283zM294 583h-73l65 137h115z" />
    <glyph glyph-name="Aring" unicode="&#xc5;" horiz-adv-x="722" 
d="M170 0h-91v716h97l376 -562v562h91v-716h-97l-376 562v-562zM314 903l56 -83l53 83h100l-110 -137h-93l-106 137h100z" />
    <glyph glyph-name="AE" unicode="&#xc6;" horiz-adv-x="612" 
d="M320 677l279 -677h-586zM74 40h410l-195 472z" />
    <glyph glyph-name="Ccedilla" unicode="&#xc7;" 
d="M296 481l-128 -223l127 -223h-71l-156 223l156 223h72zM486 481l-129 -223l129 -223h-74l-153 223l153 223h74z" />
    <glyph glyph-name="Egrave" unicode="&#xc8;" 
d="M261 35l127 223l-128 223h73l155 -223l-155 -223h-72zM70 35l129 223l-129 223h74l153 -223l-153 -223h-74z" />
    <glyph glyph-name="Eacute" unicode="&#xc9;" horiz-adv-x="1000" 
d="M217 0h-100v100h100v-100zM551 0h-100v100h100v-100zM884 0h-100v100h100v-100z" />
    <glyph glyph-name="Edieresis" unicode="&#xcb;" 
d="M156 0h-88v518h79v-73q58 85 165 85q110 0 155 -76q15 -27 20 -63q2 -15 3 -35v-356h-88v315q0 35 -3 53q-4 27 -17 45q-30 41 -89 41q-85 0 -119 -65q-18 -34 -18 -106v-283zM232 720l56 -83l53 83h100l-110 -137h-93l-106 137h100z" />
    <glyph glyph-name="Igrave" unicode="&#xcc;" horiz-adv-x="778" 
d="M143 627q92 101 234 101q163 0 260 -102q95 -101 95 -269q0 -166 -98 -269q-95 -100 -240 -100q-156 0 -253 106q-94 102 -94 255q0 173 96 278zM213 145q68 -76 176 -76q111 0 177 77q68 77 68 211q0 135 -70 215q-66 75 -170 75q-249 0 -249 -300q0 -125 68 -202z
M322 766h-71l59 137h115zM495 766h-74l62 137h113z" />
    <glyph glyph-name="Iacute" unicode="&#xcd;" horiz-adv-x="778" 
d="M143 627q92 101 234 101q163 0 260 -102q95 -101 95 -269q0 -166 -98 -269q-95 -100 -240 -100q-156 0 -253 106q-94 102 -94 255q0 173 96 278zM213 145q68 -76 176 -76q111 0 177 77q68 77 68 211q0 135 -70 215q-66 75 -170 75q-249 0 -249 -300q0 -125 68 -202z
M489 891h64q-4 -112 -94 -112q-20 0 -40 7q-14 5 -34 16l-30 15q-16 7 -28 7q-36 0 -36 -40v-6h-65v10q0 41 27 70q28 31 73 31q17 0 36 -6q13 -5 33 -14q1 -1 4 -2q3 -2 4 -2q4 -3 7 -4l15 -7q17 -6 29 -6q29 0 35 43z" />
    <glyph glyph-name="Icircumflex" unicode="&#xce;" 
d="M104 461q65 69 174 69q120 0 189 -87q54 -69 54 -184q0 -130 -69 -202q-65 -68 -174 -68q-121 0 -189 86q-54 69 -54 184q0 129 69 202zM168 112q41 -51 110 -51q153 0 153 198q0 199 -153 199t-153 -199q0 -94 43 -147zM210 583h-70l59 137h114zM383 583h-74l62 137h113
z" />
    <glyph glyph-name="Idieresis" unicode="&#xcf;" horiz-adv-x="778" 
d="M143 627q92 101 234 101q163 0 260 -102q95 -101 95 -269q0 -166 -98 -269q-95 -100 -240 -100q-156 0 -253 106q-94 102 -94 255q0 173 96 278zM213 145q68 -76 176 -76q111 0 177 77q68 77 68 211q0 135 -70 215q-66 75 -170 75q-249 0 -249 -300q0 -125 68 -202z
M542 783h-305v71h305v-71z" />
    <glyph glyph-name="Eth" unicode="&#xd0;" 
d="M562 224h-568v71h568v-71z" />
    <glyph glyph-name="Ntilde" unicode="&#xd1;" horiz-adv-x="1000" 
d="M1006 224h-1012v71h1012v-71z" />
    <glyph glyph-name="Ograve" unicode="&#xd2;" horiz-adv-x="333" 
d="M142 694q-30 -12 -42 -40q-10 -21 -12 -59h47v-100h-95v102q0 95 81 131zM294 694q-30 -12 -42 -40q-10 -21 -12 -59h46v-100h-95v102q0 95 81 131z" />
    <glyph glyph-name="Oacute" unicode="&#xd3;" horiz-adv-x="333" 
d="M137 613q0 -95 -81 -131l-22 34q29 12 42 40q10 22 12 60h-46v100h95v-103zM288 613q0 -95 -81 -131l-22 34q29 12 42 40q10 22 12 60h-46v100h95v-103z" />
    <glyph glyph-name="Ocircumflex" unicode="&#xd4;" horiz-adv-x="222" 
d="M166 694q-30 -12 -42 -40q-10 -21 -12 -59h47v-100h-95v102q0 95 81 131z" />
    <glyph glyph-name="Otilde" unicode="&#xd5;" horiz-adv-x="222" 
d="M158 613q0 -95 -81 -131l-22 34q29 12 42 40q10 22 12 60h-46v100h95v-103z" />
    <glyph glyph-name="Odieresis" unicode="&#xd6;" horiz-adv-x="584" 
d="M529 395v-84h-473v84h473zM342 451h-100v100h100v-100zM342 156h-100v100h100v-100z" />
    <glyph glyph-name="multiply" unicode="&#xd7;" horiz-adv-x="494" 
d="M214 695h54l204 -349l-204 -346h-54l-191 346zM417 346l-175 301l-166 -301l166 -300z" />
    <glyph glyph-name="Oslash" unicode="&#xd8;" 
d="M104 461q65 69 174 69q120 0 189 -87q54 -69 54 -184q0 -130 -69 -202q-65 -68 -174 -68q-121 0 -189 86q-54 69 -54 184q0 129 69 202zM168 112q41 -51 110 -51q153 0 153 198q0 199 -153 199t-153 -199q0 -94 43 -147zM430 600h-304v71h304v-71z" />
    <glyph glyph-name="Ugrave" unicode="&#xd9;" horiz-adv-x="722" 
d="M175 0h-95v716h317q33 0 54 -1q27 -2 48 -6q49 -9 84 -37q70 -56 70 -152q0 -165 -202 -194q37 -17 66 -44q34 -32 69 -87l125 -195h-119l-95 149q-69 108 -105 137q-39 31 -108 31h-109v-317zM175 639v-238h204q39 0 60 3q32 4 54 15q62 32 62 101q0 119 -154 119h-226z
M411 766h-73l65 137h115z" />
    <glyph glyph-name="Uacute" unicode="&#xda;" horiz-adv-x="333" 
d="M152 0h-88v518h79v-78q25 45 45 64q29 26 69 26q45 0 89 -28l-30 -81q-32 19 -67 19q-97 0 -97 -168v-272zM327 720l-107 -137h-73l65 137h115z" />
    <glyph glyph-name="Ucircumflex" unicode="&#xdb;" horiz-adv-x="722" 
d="M175 0h-95v716h317q33 0 54 -1q27 -2 48 -6q49 -9 84 -37q70 -56 70 -152q0 -165 -202 -194q37 -17 66 -44q34 -32 69 -87l125 -195h-119l-95 149q-69 108 -105 137q-39 31 -108 31h-109v-317zM175 639v-238h204q39 0 60 3q32 4 54 15q62 32 62 101q0 119 -154 119h-226z
M349 903l55 -83l54 83h100l-110 -137h-94l-105 137h100z" />
    <glyph glyph-name="Udieresis" unicode="&#xdc;" horiz-adv-x="333" 
d="M271 481l-130 -224l130 -222h-73l-154 222l154 224h73z" />
    <glyph glyph-name="Yacute" unicode="&#xdd;" horiz-adv-x="333" 
d="M61 35l129 224l-129 222h73l154 -222l-154 -224h-73z" />
    <glyph glyph-name="Thorn" unicode="&#xde;" horiz-adv-x="333" 
d="M152 0h-88v518h79v-78q25 45 45 64q29 26 69 26q45 0 89 -28l-30 -81q-32 19 -67 19q-97 0 -97 -168v-272zM58 720h100l56 -83l53 83h100l-110 -137h-93z" />
    <glyph glyph-name="germandbls" unicode="&#xdf;" horiz-adv-x="722" 
d="M175 0h-95v716h317q33 0 54 -1q27 -2 48 -6q49 -9 84 -37q70 -56 70 -152q0 -165 -202 -194q37 -17 66 -44q34 -32 69 -87l125 -195h-119l-95 149q-69 108 -105 137q-39 31 -108 31h-109v-317zM175 639v-238h204q39 0 60 3q32 4 54 15q62 32 62 101q0 119 -154 119h-226z
M315 -189q35 16 44 59h-39v71h84v-47q0 -43 -12 -68q-15 -33 -55 -49z" />
    <glyph glyph-name="agrave" unicode="&#xe0;" horiz-adv-x="333" 
d="M152 0h-88v518h79v-78q25 45 45 64q29 26 69 26q45 0 89 -28l-30 -81q-32 19 -67 19q-97 0 -97 -168v-272zM233 -106q0 -42 -12 -67q-16 -34 -56 -50l-22 34q35 16 44 59h-38v71h84v-47z" />
    <glyph glyph-name="aacute" unicode="&#xe1;" horiz-adv-x="667" 
d="M135 238q10 -79 58 -118q59 -47 153 -47q178 0 178 126q0 80 -128 110l-87 22l-88 24q-147 42 -147 176q0 87 67 141q68 57 183 57q123 0 194 -58q70 -57 75 -157l-91 -6q-15 136 -174 136q-164 0 -164 -107q0 -66 69 -86q46 -14 101 -28l101 -25q81 -18 129 -69
q50 -53 50 -127q0 -90 -69 -150q-74 -64 -196 -64q-144 0 -224 67q-78 65 -80 175zM183 903h100l56 -83l53 83h100l-110 -137h-93z" />
    <glyph glyph-name="acircumflex" unicode="&#xe2;" horiz-adv-x="222" 
d="M55 -98q29 13 42 40q10 21 12 58h-46v100h95v-101q0 -95 -81 -131z" />
    <glyph glyph-name="atilde" unicode="&#xe3;" horiz-adv-x="333" 
d="M34 -98q29 13 42 40q10 21 12 58h-46v100h95v-101q0 -95 -81 -131zM185 -98q51 21 54 98h-46v100h95v-101q0 -95 -81 -131z" />
    <glyph glyph-name="adieresis" unicode="&#xe4;" horiz-adv-x="500" 
d="M118 168q15 -107 134 -107q120 0 120 82q0 37 -51 58q-19 8 -52 16l-60 15q-36 9 -60 18q-31 12 -52 27q-51 38 -51 104q0 65 50 106q53 43 142 43q102 0 156 -48q23 -20 34 -45q9 -20 14 -52l-86 -12q-12 85 -113 85q-112 0 -112 -68q0 -35 52 -56q19 -7 53 -15l61 -15
q36 -10 60 -19q32 -12 53 -28q52 -38 52 -104q0 -69 -55 -116q-57 -48 -147 -48q-200 0 -229 166zM200 720l55 -83l54 83h99l-109 -137h-94l-105 137h100z" />
    <glyph glyph-name="aring" unicode="&#xe5;" horiz-adv-x="667" 
d="M135 238q10 -79 58 -118q59 -47 153 -47q178 0 178 126q0 80 -128 110l-87 22l-88 24q-147 42 -147 176q0 87 67 141q68 57 183 57q123 0 194 -58q70 -57 75 -157l-91 -6q-15 136 -174 136q-164 0 -164 -107q0 -66 69 -86q46 -14 101 -28l101 -25q81 -18 129 -69
q50 -53 50 -127q0 -90 -69 -150q-74 -64 -196 -64q-144 0 -224 67q-78 65 -80 175zM452 903l-107 -137h-73l65 137h115z" />
    <glyph glyph-name="ae" unicode="&#xe6;" horiz-adv-x="500" 
d="M118 168q15 -107 134 -107q120 0 120 82q0 37 -51 58q-19 8 -52 16l-60 15q-36 9 -60 18q-31 12 -52 27q-51 38 -51 104q0 65 50 106q53 43 142 43q102 0 156 -48q23 -20 34 -45q9 -20 14 -52l-86 -12q-12 85 -113 85q-112 0 -112 -68q0 -35 52 -56q19 -7 53 -15l61 -15
q36 -10 60 -19q32 -12 53 -28q52 -38 52 -104q0 -69 -55 -116q-57 -48 -147 -48q-200 0 -229 166zM261 583h-73l66 137h115z" />
    <glyph glyph-name="ccedilla" unicode="&#xe7;" horiz-adv-x="667" 
d="M177 217l-78 -217h-101l275 716h102l293 -716h-108l-84 217h-299zM447 294l-74 198l-10 27q-7 18 -12 34q-16 44 -29 88q-13 -67 -39 -137l-78 -210h242zM455 903l-107 -137h-73l65 137h115z" />
    <glyph glyph-name="egrave" unicode="&#xe8;" horiz-adv-x="611" 
d="M352 632v-632h-95v632h-236v84h568v-84h-237zM158 903h100l56 -83l53 83h100l-110 -137h-93z" />
    <glyph glyph-name="eacute" unicode="&#xe9;" horiz-adv-x="375" 
d="M168 452v-310q0 -22 1 -31q1 -14 5 -23q10 -19 43 -19q7 0 18 2l21 3l13 -78q-36 -8 -65 -8q-84 0 -109 50q-10 19 -13 50q-2 13 -2 29v335h-64v66h64v129l88 53v-182h88v-66h-88zM219 588q38 16 45 57h-39v71h84v-46q0 -42 -13 -68q-16 -32 -55 -47z" />
    <glyph glyph-name="ecircumflex" unicode="&#xea;" horiz-adv-x="278" 
d="M187 716v-716h-95v716h95zM261 903l-107 -137h-73l65 137h115z" />
    <glyph glyph-name="edieresis" unicode="&#xeb;" horiz-adv-x="611" 
d="M584 84v-84h-566v88l367 458q45 55 74 86h-400v84h513v-84l-402 -497l-43 -51h457zM154 903h101l55 -83l54 83h99l-110 -137h-93z" />
    <glyph glyph-name="igrave" unicode="&#xec;" horiz-adv-x="500" 
d="M479 0h-459v71l330 379q-46 -3 -99 -3h-211v71h424v-57l-316 -369q-3 -3 -4 -3l-16 -18q36 3 56 4q32 2 55 2h240v-77zM203 720l55 -83l54 83h100l-110 -137h-94l-105 137h100z" />
    <glyph glyph-name="iacute" unicode="&#xed;" horiz-adv-x="722" 
d="M174 303q0 -72 8 -108q11 -45 40 -74q48 -48 134 -48q96 0 144 48q30 30 40 75q7 34 7 107v413h95v-413q0 -47 -3 -80q-4 -38 -12 -67q-19 -65 -71 -108q-71 -60 -195 -60q-125 0 -197 60q-52 43 -70 107q-9 29 -12 68q-3 32 -3 80v413h95v-413zM513 783h-305v71h305v-71
z" />
    <glyph glyph-name="icircumflex" unicode="&#xee;" horiz-adv-x="778" 
d="M143 627q92 101 234 101q163 0 260 -102q95 -101 95 -269q0 -166 -98 -269q-95 -100 -240 -100q-156 0 -253 106q-94 102 -94 255q0 173 96 278zM213 145q68 -76 176 -76q111 0 177 77q68 77 68 211q0 135 -70 215q-66 75 -170 75q-249 0 -249 -300q0 -125 68 -202z
M404 766h-73l65 137h115z" />
    <glyph glyph-name="idieresis" unicode="&#xef;" horiz-adv-x="778" 
d="M143 627q92 101 234 101q163 0 260 -102q95 -101 95 -269q0 -166 -98 -269q-95 -100 -240 -100q-156 0 -253 106q-94 102 -94 255q0 173 96 278zM213 145q68 -76 176 -76q111 0 177 77q68 77 68 211q0 135 -70 215q-66 75 -170 75q-249 0 -249 -300q0 -125 68 -202z
M444 766l-53 83l-56 -83h-100l106 137h93l110 -137h-100z" />
    <glyph glyph-name="eth" unicode="&#xf0;" 
d="M408 76q-61 -88 -165 -88q-107 0 -153 76q-16 26 -21 62q-2 15 -3 35v357h88v-328q0 -126 113 -126q53 0 93 40q24 24 32 58q7 28 7 79v277h88v-518h-79v76zM429 600h-305v71h305v-71z" />
    <glyph glyph-name="ntilde" unicode="&#xf1;" horiz-adv-x="722" 
d="M174 303q0 -72 8 -108q11 -45 40 -74q48 -48 134 -48q96 0 144 48q30 30 40 75q7 34 7 107v413h95v-413q0 -47 -3 -80q-4 -38 -12 -67q-19 -65 -71 -108q-71 -60 -195 -60q-125 0 -197 60q-52 43 -70 107q-9 29 -12 68q-3 32 -3 80v413h95v-413zM299 897q26 27 64 27
q34 0 60 -26t26 -64q0 -37 -26 -63q-25 -26 -62 -26q-36 0 -62 26t-26 65q0 35 26 61zM362 781q52 0 52 54q0 53 -52 53q-51 0 -51 -52q0 -55 51 -55z" />
    <glyph glyph-name="ograve" unicode="&#xf2;" horiz-adv-x="722" 
d="M174 303q0 -72 8 -108q11 -45 40 -74q48 -48 134 -48q96 0 144 48q30 30 40 75q7 34 7 107v413h95v-413q0 -47 -3 -80q-4 -38 -12 -67q-19 -65 -71 -108q-71 -60 -195 -60q-125 0 -197 60q-52 43 -70 107q-9 29 -12 68q-3 32 -3 80v413h95v-413zM376 766h-73l65 137h115z
" />
    <glyph glyph-name="oacute" unicode="&#xf3;" 
d="M408 76q-61 -88 -165 -88q-107 0 -153 76q-16 26 -21 62q-2 15 -3 35v357h88v-328q0 -126 113 -126q53 0 93 40q24 24 32 58q7 28 7 79v277h88v-518h-79v76zM215 714q25 27 63 27q34 0 60 -26t26 -64q0 -88 -87 -88t-87 90q0 35 25 61zM278 599q51 0 51 53t-51 53
q-53 0 -53 -52q0 -54 53 -54z" />
    <glyph glyph-name="ocircumflex" unicode="&#xf4;" horiz-adv-x="722" 
d="M174 303q0 -72 8 -108q11 -45 40 -74q48 -48 134 -48q96 0 144 48q30 30 40 75q7 34 7 107v413h95v-413q0 -47 -3 -80q-4 -38 -12 -67q-19 -65 -71 -108q-71 -60 -195 -60q-125 0 -197 60q-52 43 -70 107q-9 29 -12 68q-3 32 -3 80v413h95v-413zM293 766h-70l59 137h114z
M466 766h-74l62 137h113z" />
    <glyph glyph-name="otilde" unicode="&#xf5;" 
d="M408 76q-61 -88 -165 -88q-107 0 -153 76q-16 26 -21 62q-2 15 -3 35v357h88v-328q0 -126 113 -126q53 0 93 40q24 24 32 58q7 28 7 79v277h88v-518h-79v76zM208 583h-70l59 137h115zM381 583h-74l62 137h114z" />
    <glyph glyph-name="odieresis" unicode="&#xf6;" horiz-adv-x="722" 
d="M642 716v-413q0 -47 -3 -79q-4 -39 -12 -68q-19 -65 -71 -108q-64 -53 -172 -60l-6 -24q-3 -16 -3 -30q0 -76 72 -76q36 0 80 22v-58q-56 -29 -97 -29q-117 0 -117 107q0 20 4 45q3 17 10 44q-27 3 -42 6q-23 3 -41 8q-44 14 -80 44q-51 43 -70 107q-8 30 -12 69
q-3 32 -3 80v413h95v-413q0 -72 8 -108q11 -45 40 -74q48 -48 134 -48q96 0 144 48q30 30 40 75q7 34 7 107v413h95z" />
    <glyph glyph-name="divide" unicode="&#xf7;" 
d="M467 0q-14 -38 -14 -66q0 -76 73 -76q35 0 79 22v-58q-55 -29 -107 -29q-107 0 -107 107q0 28 7 59l10 41v76q-61 -88 -165 -88q-107 0 -153 76q-16 26 -21 62q-2 15 -3 35v357h88v-328q0 -126 113 -126q53 0 93 40q24 24 32 58q7 28 7 79v277h88v-518h-20z" />
    <glyph glyph-name="oslash" unicode="&#xf8;" horiz-adv-x="667" 
d="M374 303v-303h-95v303l-276 413h116l170 -263q22 -35 43 -74q16 28 38 62q17 28 41 65l138 210h110zM453 903l-107 -137h-73l65 137h115z" />
    <glyph glyph-name="ugrave" unicode="&#xf9;" horiz-adv-x="500" 
d="M491 518l-197 -527q-3 -6 -4 -11l-4 -10q-5 -12 -8 -21q-9 -23 -16 -39q-17 -40 -34 -64q-41 -56 -109 -56q-16 0 -32 4q-7 1 -14 3l-11 3l-10 83l23 -5q15 -3 29 -3q50 0 72 34q9 13 18 39l19 51l-197 519h95l108 -300q19 -53 37 -120l13 47q10 35 24 72l110 301h88z
M269 583h-73l65 137h115z" />
    <glyph glyph-name="uacute" unicode="&#xfa;" horiz-adv-x="500" 
d="M154 0h-88v716h88v-408l208 210h114l-199 -192l219 -326h-109l-171 265l-62 -59v-206zM204 -189q35 16 44 59h-39v71h84v-47q0 -42 -12 -67q-16 -34 -56 -50z" />
    <glyph glyph-name="ucircumflex" unicode="&#xfb;" horiz-adv-x="611" 
d="M584 84v-84h-566v88l367 458q45 55 74 86h-400v84h513v-84l-402 -497l-43 -51h457zM356 875v-109h-109v109h109z" />
    <glyph glyph-name="udieresis" unicode="&#xfc;" 
d="M73 0v276l-71 -60v82l71 60v358h95v-278l162 138v-82l-162 -137v-273h355v-84h-450z" />
    <glyph glyph-name="yacute" unicode="&#xfd;" horiz-adv-x="500" 
d="M479 0h-459v71l330 379q-46 -3 -99 -3h-211v71h424v-57l-316 -369q-3 -3 -4 -3l-16 -18q36 3 56 4q32 2 55 2h240v-77zM304 583h-109v109h109v-109z" />
    <glyph glyph-name="thorn" unicode="&#xfe;" horiz-adv-x="778" 
d="M623 281h-212v84h303v-265q-141 -112 -297 -112q-164 0 -264 100q-101 101 -101 267q0 167 94 268q98 105 265 105q238 0 292 -212l-85 -24q-11 37 -20 55q-14 30 -39 51q-57 49 -146 49q-126 0 -196 -78q-67 -76 -67 -209q0 -287 275 -287q48 0 109 24q58 22 89 50v134z
M361 -189q35 16 44 59h-39v71h84v-47q0 -42 -12 -67q-15 -34 -55 -50z" />
    <glyph glyph-name="ydieresis" unicode="&#xff;" horiz-adv-x="333" 
d="M120 720l56 -83l53 83h100l-110 -137h-93l-106 137h100z" />
    </font>
</defs>
</svg>
